Coordinates
version=1
nRows=18
nColumns=22
inDegrees=yes

Units are S.I. units (second, meters, Newtons, ...)
If the header above contains a line with 'inDegrees', this indicates whether rotational values are in degrees (yes) or radians (no).

endheader
time	pelvis_tilt	pelvis_list	pelvis_rotation	pelvis_tx	pelvis_ty	pelvis_tz	hip_flexion_r	hip_adduction_r	hip_rotation_r	knee_angle_r	ankle_angle_r	subtalar_angle_r	hip_flexion_l	hip_adduction_l	hip_rotation_l	knee_angle_l	ankle_angle_l	subtalar_angle_l	lumbar_extension	lumbar_bending	lumbar_rotation
      0.01000000	     -0.23031612	     -1.90629358	      2.82962015	     -0.95403569	      0.94514901	     -0.54457253	      0.52546898	      1.98955037	    -11.74020007	     -9.56663920	     10.68262475	      0.28969039	      4.09118485	     -2.79511744	     -8.74258318	    -16.95884247	     16.25094362	     10.64126727	     -6.15186743	     -1.04972958	     -4.23171452
      0.02000000	     -0.25945135	     -2.17639197	      2.85245392	     -0.95384535	      0.94482569	     -0.54418210	      0.46905462	      2.33425609	    -11.71670502	     -9.39049178	     10.56861513	      0.16426867	      4.11840023	     -3.29983542	     -8.89727371	    -17.16793381	     15.53790237	      8.57646668	     -6.10611973	     -0.77227139	     -4.22271691
      0.03000000	     -0.28940126	     -2.39712073	      2.88156897	     -0.95363370	      0.94452663	     -0.54383262	      0.40810655	      2.62038656	    -11.71855690	     -9.21648159	     10.51641014	      0.11744290	      4.14863750	     -3.73798488	     -9.08601348	    -17.36659539	     14.79800024	      6.20454337	     -6.06784472	     -0.54803631	     -4.25791000
      0.04000000	     -0.33015052	     -2.58560486	      2.90748990	     -0.95343580	      0.94427976	     -0.54352664	      0.35231366	      2.86881678	    -11.70239075	     -9.03137062	     10.41223329	      0.08114662	      4.18454564	     -4.09857368	     -9.21339283	    -17.51275329	     14.14950027	      3.90072004	     -6.02849489	     -0.35872708	     -4.25813439
      0.05000000	     -0.37737429	     -2.70778101	      2.94310065	     -0.95323502	      0.94407971	     -0.54331359	      0.30176154	      3.03674068	    -11.71199803	     -8.85464130	     10.35625116	      0.06070686	      4.23131952	     -4.34362818	     -9.31871320	    -17.62146599	     13.66400807	      1.96924387	     -5.98788383	     -0.23997546	     -4.28838734
      0.06000000	     -0.43376327	     -2.78603547	      2.97799368	     -0.95305132	      0.94391974	     -0.54316583	      0.26125019	      3.15086130	    -11.72430266	     -8.68198146	     10.30642709	      0.05021266	      4.28412078	     -4.49860172	     -9.38116604	    -17.68067221	     13.34738230	      0.62304593	     -5.94696289	     -0.16761418	     -4.31582196
      0.07000000	     -0.49802897	     -2.82956622	      3.00961325	     -0.95287024	      0.94379150	     -0.54306863	      0.22967259	      3.22201191	    -11.73745113	     -8.51435425	     10.25412188	      0.04617166	      4.33834282	     -4.58207627	     -9.40659682	    -17.69681096	     13.17407988	     -0.13284547	     -5.90054053	     -0.13295213	     -4.33544682
      0.08000000	     -0.56026535	     -2.84859882	      3.03581551	     -0.95270689	      0.94369602	     -0.54299529	      0.19812161	      3.26405012	    -11.73698128	     -8.35230026	     10.22611214	      0.04721316	      4.38876894	     -4.61858197	     -9.41257009	    -17.68859208	     13.05894639	     -0.27316385	     -5.86305261	     -0.12680794	     -4.34704765
      0.09000000	     -0.62904169	     -2.85273694	      3.05023708	     -0.95254271	      0.94360940	     -0.54294890	      0.18157153	      3.28359752	    -11.74610499	     -8.20475921	     10.17425101	      0.04930115	      4.43108733	     -4.61878154	     -9.39390199	    -17.64333474	     13.09162329	     -0.34333202	     -5.81783246	     -0.13567928	     -4.33643653
      0.10000000	     -0.68422193	     -2.84929002	      3.05639852	     -0.95238492	      0.94355006	     -0.54291458	      0.16600705	      3.29033018	    -11.78378551	     -8.08729366	     10.17030456	      0.05248998	      4.46067163	     -4.60711391	     -9.40300868	    -17.59724827	     13.12276496	     -0.33059633	     -5.79032945	     -0.15379713	     -4.29732325
      0.11000000	     -0.75918746	     -2.87082641	      3.06085802	     -0.95225355	      0.94346512	     -0.54287981	      0.16130441	      3.32725077	    -11.76775737	     -7.93959527	     10.07454828	      0.07384573	      4.52246706	     -4.61813943	     -9.37074075	    -17.56491762	     13.19084878	     -0.09651050	     -5.73879317	     -0.14139134	     -4.28287517
      0.12000000	     -0.81593880	     -2.85886895	      3.05234589	     -0.95210864	      0.94340690	     -0.54284266	      0.15685364	      3.32259586	    -11.76215929	     -7.83666464	     10.04858769	      0.08388348	      4.54317831	     -4.59122537	     -9.36486180	    -17.50104336	     13.26341767	      0.02828888	     -5.70910631	     -0.17252980	     -4.25571597
      0.13000000	     -0.86194342	     -2.87600370	      3.03218685	     -0.95197855	      0.94336005	     -0.54279185	      0.14858828	      3.34962098	    -11.76075028	     -7.73922096	     10.00121231	      0.10832270	      4.57106457	     -4.60508930	     -9.38207954	    -17.47576256	     13.28383862	      0.30090956	     -5.69333325	     -0.16843246	     -4.19307231
      0.14000000	     -0.90095801	     -2.87723185	      3.01822611	     -0.95184180	      0.94332143	     -0.54277080	      0.14703731	      3.35477664	    -11.79142078	     -7.67401590	      9.99837616	      0.11093325	      4.58217605	     -4.59731407	     -9.39071070	    -17.43325780	     13.31060928	      0.32315464	     -5.68643655	     -0.18251965	     -4.15085572
      0.15000000	     -0.93729766	     -2.88292109	      2.99428598	     -0.95171521	      0.94328450	     -0.54274321	      0.15116888	      3.36361763	    -11.80453981	     -7.62077508	      9.97819294	      0.11535347	      4.59067068	     -4.59499159	     -9.39297996	    -17.39642048	     13.34238101	      0.35966712	     -5.68656490	     -0.19188234	     -4.09109481
      0.16000000	     -0.96821318	     -2.89643130	      2.96110033	     -0.95161089	      0.94325437	     -0.54270185	      0.16457735	      3.37966896	    -11.80104878	     -7.59131806	      9.94507486	      0.12240262	      4.59624374	     -4.60414360	     -9.40262750	    -17.36560466	     13.36840317	      0.40675745	     -5.70042301	     -0.19334936	     -4.01768018
      0.17000000	     -0.99107692	     -2.91462403	      2.91998138	     -0.95153919	      0.94323526	     -0.54265572	      0.18934389	      3.39778540	    -11.78185831	     -7.59469491	      9.90883524	      0.13278118	      4.60028420	     -4.62210194	     -9.42904854	    -17.34788163	     13.38074928	      0.45780267	     -5.73415760	     -0.18732265	     -3.94320833
      0.18000000	     -1.01753828	     -2.92664130	      2.86984384	     -0.95146539	      0.94321217	     -0.54261107	      0.22187548	      3.40772313	    -11.74116155	     -7.60454106	      9.88777550	      0.15556614	      4.60812895	     -4.63701044	     -9.49578374	    -17.33479619	     13.38478630	      0.53170268	     -5.76714564	     -0.18614794	     -3.88509182
